<svg version="1.1" viewBox="0.0 0.0 512.0 512.0" fill="none" stroke="none" stroke-linecap="square" stroke-miterlimit="10" xmlns:xlink="http://www.w3.org/1999/xlink" xmlns="http://www.w3.org/2000/svg"><clipPath id="p.0"><path d="m0 0l512.0 0l0 512.0l-512.0 0l0 -512.0z" clip-rule="nonzero"/></clipPath><g clip-path="url(#p.0)"><path fill="#000000" fill-opacity="0.0" d="m0 0l512.0 0l0 512.0l-512.0 0z" fill-rule="evenodd"/><path fill="#a329a2" d="m0.015722835 85.33504l0 0c0 -47.12924 38.2058 -85.33504 85.33504 -85.33504l341.32993 0l0 0c22.632263 0 44.337555 8.99063 60.340973 24.994055c16.003418 16.003424 24.99408 37.708725 24.99408 60.34098l0 341.3299c0 47.129242 -38.20581 85.33505 -85.33505 85.33505l-341.32993 0c-47.12924 0 -85.33504 -38.20581 -85.33504 -85.33505z" fill-rule="evenodd"/><path stroke="#000000" stroke-width="1.0" stroke-linejoin="round" stroke-linecap="butt" d="m0.015722835 85.33504l0 0c0 -47.12924 38.2058 -85.33504 85.33504 -85.33504l341.32993 0l0 0c22.632263 0 44.337555 8.99063 60.340973 24.994055c16.003418 16.003424 24.99408 37.708725 24.99408 60.34098l0 341.3299c0 47.129242 -38.20581 85.33505 -85.33505 85.33505l-341.32993 0c-47.12924 0 -85.33504 -38.20581 -85.33504 -85.33505z" fill-rule="evenodd"/><path fill="#f3f3f3" d="m202.56053 80.6907l0 0c0 -29.484177 23.44336 -53.385826 52.362213 -53.385826l0 0c13.887314 0 27.205856 5.624563 37.02568 15.636347c9.819794 10.011784 15.336517 23.59068 15.336517 37.749477l0 0c0 29.484184 -23.44336 53.385826 -52.362198 53.385826l0 0c-28.918854 0 -52.362213 -23.901642 -52.362213 -53.385826z" fill-rule="evenodd"/><path stroke="#000000" stroke-width="1.0" stroke-linejoin="round" stroke-linecap="butt" d="m202.56053 80.6907l0 0c0 -29.484177 23.44336 -53.385826 52.362213 -53.385826l0 0c13.887314 0 27.205856 5.624563 37.02568 15.636347c9.819794 10.011784 15.336517 23.59068 15.336517 37.749477l0 0c0 29.484184 -23.44336 53.385826 -52.362198 53.385826l0 0c-28.918854 0 -52.362213 -23.901642 -52.362213 -53.385826z" fill-rule="evenodd"/><path fill="#000000" d="m257.93335 94.8107l-3.484375 0l0 -23.03125l-7.203125 2.734375l0 -3.1875l10.40625 -4.0l0.28125 0l0 27.484375z" fill-rule="nonzero"/><path fill="#f3f3f3" d="m105.50363 242.4918l0 0c0 -24.04831 19.121315 -43.54332 42.708664 -43.54332l0 0c11.327042 0 22.190155 4.5875854 30.199585 12.75354c8.00943 8.165955 12.509079 19.241364 12.509079 30.78978l0 0c0 24.048294 -19.121323 43.54329 -42.708664 43.54329l0 0c-23.587349 0 -42.708664 -19.494995 -42.708664 -43.54329z" fill-rule="evenodd"/><path stroke="#000000" stroke-width="1.0" stroke-linejoin="round" stroke-linecap="butt" d="m105.50363 242.4918l0 0c0 -24.04831 19.121315 -43.54332 42.708664 -43.54332l0 0c11.327042 0 22.190155 4.5875854 30.199585 12.75354c8.00943 8.165955 12.509079 19.241364 12.509079 30.78978l0 0c0 24.048294 -19.121323 43.54329 -42.708664 43.54329l0 0c-23.587349 0 -42.708664 -19.494995 -42.708664 -43.54329z" fill-rule="evenodd"/><path fill="#000000" d="m158.15334 256.6118l-18.0 0l0 -2.5156097l9.0 -10.0q1.203125 -1.34375 2.015625 -2.375q0.8125 -1.046875 1.296875 -1.921875q0.5 -0.875 0.703125 -1.65625q0.203125 -0.78125 0.203125 -1.609375q0 -1.03125 -0.328125 -1.921875q-0.328125 -0.890625 -0.96875 -1.546875q-0.625 -0.671875 -1.53125 -1.046875q-0.890625 -0.390625 -2.015625 -0.390625q-1.375 0 -2.390625 0.390625q-1.015625 0.390625 -1.6875 1.125q-0.65625 0.71875 -1.0 1.765625q-0.328125 1.03125 -0.328125 2.3125l-3.5 0q0 -1.734375 0.59375 -3.265625q0.609375 -1.546875 1.75 -2.6875q1.140625 -1.15625 2.796875 -1.828125q1.65625 -0.6875 3.765625 -0.6875q1.9375 0 3.5 0.578125q1.5625 0.578125 2.625 1.59375q1.078125 1.015625 1.65625 2.421875q0.578125 1.390625 0.578125 3.03125q0 1.234375 -0.421875 2.4375q-0.40625 1.1875 -1.125 2.359375q-0.703125 1.171875 -1.640625 2.3125q-0.921875 1.140625 -1.96875 2.265625l-7.375 8.015625l13.796875 0l0 2.8437347z" fill-rule="nonzero"/><path fill="#f3f3f3" d="m320.88577 242.4918l0 0c0 -24.04831 19.121338 -43.54332 42.70868 -43.54332l0 0c11.327026 0 22.190155 4.5875854 30.199585 12.75354c8.00943 8.165955 12.509064 19.241364 12.509064 30.78978l0 0c0 24.048294 -19.121307 43.54329 -42.70865 43.54329l0 0c-23.587341 0 -42.70868 -19.494995 -42.70868 -43.54329z" fill-rule="evenodd"/><path stroke="#000000" stroke-width="1.0" stroke-linejoin="round" stroke-linecap="butt" d="m320.88577 242.4918l0 0c0 -24.04831 19.121338 -43.54332 42.70868 -43.54332l0 0c11.327026 0 22.190155 4.5875854 30.199585 12.75354c8.00943 8.165955 12.509064 19.241364 12.509064 30.78978l0 0c0 24.048294 -19.121307 43.54329 -42.70865 43.54329l0 0c-23.587341 0 -42.70868 -19.494995 -42.70868 -43.54329z" fill-rule="evenodd"/><path fill="#000000" d="m373.5355 256.6118l-18.0 0l0 -2.5156097l9.0 -10.0q1.203125 -1.34375 2.015625 -2.375q0.8125 -1.046875 1.296875 -1.921875q0.5 -0.875 0.703125 -1.65625q0.203125 -0.78125 0.203125 -1.609375q0 -1.03125 -0.328125 -1.921875q-0.328125 -0.890625 -0.96875 -1.546875q-0.625 -0.671875 -1.53125 -1.046875q-0.890625 -0.390625 -2.015625 -0.390625q-1.375 0 -2.390625 0.390625q-1.015625 0.390625 -1.6875 1.125q-0.65625 0.71875 -1.0 1.765625q-0.328125 1.03125 -0.328125 2.3125l-3.5 0q0 -1.734375 0.59375 -3.265625q0.609375 -1.546875 1.75 -2.6875q1.140625 -1.15625 2.796875 -1.828125q1.65625 -0.6875 3.765625 -0.6875q1.9375 0 3.5 0.578125q1.5625 0.578125 2.625 1.59375q1.078125 1.015625 1.65625 2.421875q0.578125 1.390625 0.578125 3.03125q0 1.234375 -0.421875 2.4375q-0.40625 1.1875 -1.125 2.359375q-0.703125 1.171875 -1.640625 2.3125q-0.921875 1.140625 -1.96875 2.265625l-7.375 8.015625l13.796875 0l0 2.8437347z" fill-rule="nonzero"/><path fill="#000000" fill-opacity="0.0" d="m148.2123 198.94849c0 -16.227936 26.677155 -24.345627 53.354324 -32.455856c26.67717 -8.110245 53.35434 -16.213013 53.35434 -32.426025" fill-rule="evenodd"/><path stroke="#000000" stroke-width="1.0" stroke-linejoin="round" stroke-linecap="butt" d="m148.2123 198.94849c0 -16.227936 26.677155 -24.345627 53.354324 -32.455856c26.67717 -8.110245 53.35434 -16.213013 53.35434 -32.426025" fill-rule="evenodd"/><path fill="#000000" fill-opacity="0.0" d="m363.59445 198.94849c0 -16.227936 -27.165375 -24.345627 -54.33072 -32.455856c-27.165344 -8.110245 -54.330704 -16.213013 -54.330704 -32.426025" fill-rule="evenodd"/><path stroke="#000000" stroke-width="1.0" stroke-linejoin="round" stroke-linecap="butt" d="m363.59445 198.94849c0 -16.227936 -27.165375 -24.345627 -54.33072 -32.455856c-27.165344 -8.110245 -54.330704 -16.213013 -54.330704 -32.426025" fill-rule="evenodd"/><path fill="#f3f3f3" d="m60.570248 364.5162l0 0c0 -15.855377 12.606533 -28.70868 28.157482 -28.70868l0 0c7.467827 0 14.629791 3.0246582 19.910347 8.408569c5.280548 5.3839417 8.247131 12.686096 8.247131 20.30011l0 0c0 15.855347 -12.606529 28.708649 -28.157478 28.708649l0 0c-15.550949 0 -28.157482 -12.853302 -28.157482 -28.708649z" fill-rule="evenodd"/><path stroke="#000000" stroke-width="1.0" stroke-linejoin="round" stroke-linecap="butt" d="m60.570248 364.5162l0 0c0 -15.855377 12.606533 -28.70868 28.157482 -28.70868l0 0c7.467827 0 14.629791 3.0246582 19.910347 8.408569c5.280548 5.3839417 8.247131 12.686096 8.247131 20.30011l0 0c0 15.855347 -12.606529 28.708649 -28.157478 28.708649l0 0c-15.550949 0 -28.157482 -12.853302 -28.157482 -28.708649z" fill-rule="evenodd"/><path fill="#f3f3f3" d="m181.49696 364.5162l0 0c0 -15.855377 12.606537 -28.70868 28.157486 -28.70868l0 0c7.4678345 0 14.629791 3.0246582 19.91034 8.408569c5.2805634 5.3839417 8.247147 12.686096 8.247147 20.30011l0 0c0 15.855347 -12.606537 28.708649 -28.157486 28.708649l0 0c-15.550949 0 -28.157486 -12.853302 -28.157486 -28.708649z" fill-rule="evenodd"/><path stroke="#000000" stroke-width="1.0" stroke-linejoin="round" stroke-linecap="butt" d="m181.49696 364.5162l0 0c0 -15.855377 12.606537 -28.70868 28.157486 -28.70868l0 0c7.4678345 0 14.629791 3.0246582 19.91034 8.408569c5.2805634 5.3839417 8.247147 12.686096 8.247147 20.30011l0 0c0 15.855347 -12.606537 28.708649 -28.157486 28.708649l0 0c-15.550949 0 -28.157486 -12.853302 -28.157486 -28.708649z" fill-rule="evenodd"/><path fill="#f3f3f3" d="m274.27402 364.5162l0 0c0 -15.855377 12.606537 -28.70868 28.157501 -28.70868l0 0c7.467804 0 14.629791 3.0246582 19.91034 8.408569c5.280548 5.3839417 8.247131 12.686096 8.247131 20.30011l0 0c0 15.855347 -12.606537 28.708649 -28.15747 28.708649l0 0c-15.550964 0 -28.157501 -12.853302 -28.157501 -28.708649z" fill-rule="evenodd"/><path stroke="#000000" stroke-width="1.0" stroke-linejoin="round" stroke-linecap="butt" d="m274.27402 364.5162l0 0c0 -15.855377 12.606537 -28.70868 28.157501 -28.70868l0 0c7.467804 0 14.629791 3.0246582 19.91034 8.408569c5.280548 5.3839417 8.247131 12.686096 8.247131 20.30011l0 0c0 15.855347 -12.606537 28.708649 -28.15747 28.708649l0 0c-15.550964 0 -28.157501 -12.853302 -28.157501 -28.708649z" fill-rule="evenodd"/><path fill="#f3f3f3" d="m395.2041 364.5162l0 0c0 -15.855377 12.606537 -28.70868 28.15747 -28.70868l0 0c7.4678345 0 14.629791 3.0246582 19.91037 8.408569c5.280548 5.3839417 8.247131 12.686096 8.247131 20.30011l0 0c0 15.855347 -12.606537 28.708649 -28.157501 28.708649l0 0c-15.550934 0 -28.15747 -12.853302 -28.15747 -28.708649z" fill-rule="evenodd"/><path stroke="#000000" stroke-width="1.0" stroke-linejoin="round" stroke-linecap="butt" d="m395.2041 364.5162l0 0c0 -15.855377 12.606537 -28.70868 28.15747 -28.70868l0 0c7.4678345 0 14.629791 3.0246582 19.91037 8.408569c5.280548 5.3839417 8.247131 12.686096 8.247131 20.30011l0 0c0 15.855347 -12.606537 28.708649 -28.157501 28.708649l0 0c-15.550934 0 -28.15747 -12.853302 -28.15747 -28.708649z" fill-rule="evenodd"/><path fill="#000000" fill-opacity="0.0" d="m88.72773 335.80753c0 -12.432739 14.874016 -18.644989 29.748032 -24.865448c14.874016 -6.2204895 29.748024 -12.449158 29.748024 -24.898315" fill-rule="evenodd"/><path stroke="#000000" stroke-width="1.0" stroke-linejoin="round" stroke-linecap="butt" d="m88.72773 335.80753c0 -12.432739 14.874016 -18.644989 29.748032 -24.865448c14.874016 -6.2204895 29.748024 -12.449158 29.748024 -24.898315" fill-rule="evenodd"/><path fill="#000000" fill-opacity="0.0" d="m209.65445 335.80753c0 -12.432739 -15.362213 -18.644989 -30.724411 -24.865448c-15.362198 -6.2204895 -30.724411 -12.449158 -30.724411 -24.898315" fill-rule="evenodd"/><path stroke="#000000" stroke-width="1.0" stroke-linejoin="round" stroke-linecap="butt" d="m209.65445 335.80753c0 -12.432739 -15.362213 -18.644989 -30.724411 -24.865448c-15.362198 -6.2204895 -30.724411 -12.449158 -30.724411 -24.898315" fill-rule="evenodd"/><path fill="#000000" fill-opacity="0.0" d="m302.43152 335.80753c0 -12.432739 15.291321 -18.644989 30.582672 -24.865448c15.291321 -6.2204895 30.582672 -12.449158 30.582672 -24.898315" fill-rule="evenodd"/><path stroke="#000000" stroke-width="1.0" stroke-linejoin="round" stroke-linecap="butt" d="m302.43152 335.80753c0 -12.432739 15.291321 -18.644989 30.582672 -24.865448c15.291321 -6.2204895 30.582672 -12.449158 30.582672 -24.898315" fill-rule="evenodd"/><path fill="#000000" fill-opacity="0.0" d="m423.36157 335.80753c0 -12.432739 -14.944885 -18.644989 -29.88974 -24.865448c-14.944885 -6.2204895 -29.88977 -12.449158 -29.88977 -24.898315" fill-rule="evenodd"/><path stroke="#000000" stroke-width="1.0" stroke-linejoin="round" stroke-linecap="butt" d="m423.36157 335.80753c0 -12.432739 -14.944885 -18.644989 -29.88974 -24.865448c-14.944885 -6.2204895 -29.88977 -12.449158 -29.88977 -24.898315" fill-rule="evenodd"/><path fill="#000000" fill-opacity="0.0" d="m4.929134 402.93054l502.17322 0l0 81.763794l-502.17322 0z" fill-rule="evenodd"/><path fill="#ffffff" d="m177.2453 451.12433q-0.3125 2.5 -1.28125 4.59375q-0.96875 2.078125 -2.515625 3.578125q-1.546875 1.5 -3.65625 2.328125q-2.109375 0.828125 -4.71875 0.828125q-2.21875 0 -4.046875 -0.625q-1.8125 -0.640625 -3.234375 -1.75q-1.421875 -1.125 -2.453125 -2.625q-1.015625 -1.515625 -1.703125 -3.296875q-0.671875 -1.78125 -1.015625 -3.734375q-0.328125 -1.953125 -0.359375 -3.953125l0 -5.015625q0.03125 -2.015625 0.359375 -3.96875q0.34375 -1.953125 1.015625 -3.734375q0.6875 -1.78125 1.703125 -3.296875q1.03125 -1.515625 2.453125 -2.625q1.421875 -1.125 3.21875 -1.75q1.8125 -0.640625 4.0625 -0.640625q2.703125 0 4.828125 0.84375q2.125 0.828125 3.65625 2.34375q1.53125 1.515625 2.453125 3.65625q0.9375 2.125 1.234375 4.6875l-4.578125 0q-0.21875 -1.625 -0.765625 -3.03125q-0.546875 -1.421875 -1.46875 -2.484375q-0.90625 -1.0625 -2.234375 -1.65625q-1.3125 -0.609375 -3.125 -0.609375q-1.625 0 -2.875 0.53125q-1.25 0.53125 -2.15625 1.453125q-0.90625 0.90625 -1.515625 2.125q-0.59375 1.203125 -0.96875 2.5625q-0.375 1.359375 -0.53125 2.78125q-0.15625 1.421875 -0.15625 2.765625l0 5.0625q0 1.34375 0.15625 2.765625q0.15625 1.421875 0.53125 2.796875q0.375 1.359375 0.96875 2.578125q0.59375 1.203125 1.5 2.140625q0.921875 0.921875 2.15625 1.453125q1.234375 0.53125 2.890625 0.53125q1.8125 0 3.125 -0.5625q1.328125 -0.578125 2.234375 -1.59375q0.921875 -1.03125 1.46875 -2.421875q0.546875 -1.40625 0.765625 -3.03125l4.578125 0zm30.508072 -5.09375q-0.03125 1.921875 -0.34375 3.890625q-0.3125 1.96875 -0.953125 3.796875q-0.640625 1.828125 -1.640625 3.421875q-1.0 1.578125 -2.390625 2.765625q-1.375 1.1875 -3.171875 1.875q-1.796875 0.671875 -4.015625 0.671875q-2.234375 0 -4.03125 -0.671875q-1.78125 -0.6875 -3.171875 -1.875q-1.390625 -1.1875 -2.40625 -2.78125q-1.015625 -1.609375 -1.671875 -3.4375q-0.640625 -1.828125 -0.96875 -3.78125q-0.328125 -1.953125 -0.34375 -3.875l0 -4.109375q0.015625 -1.9375 0.328125 -3.890625q0.3125 -1.96875 0.96875 -3.796875q0.65625 -1.84375 1.65625 -3.4375q1.0 -1.59375 2.375 -2.78125q1.390625 -1.203125 3.1875 -1.890625q1.796875 -0.6875 4.015625 -0.6875q2.234375 0 4.03125 0.6875q1.8125 0.6875 3.1875 1.875q1.390625 1.1875 2.390625 2.78125q1.0 1.59375 1.65625 3.421875q0.65625 1.828125 0.96875 3.8125q0.3125 1.96875 0.34375 3.90625l0 4.109375zm-4.53125 -4.15625q-0.03125 -1.296875 -0.1875 -2.6875q-0.140625 -1.40625 -0.5 -2.765625q-0.359375 -1.375 -0.953125 -2.625q-0.59375 -1.25 -1.484375 -2.203125q-0.890625 -0.953125 -2.109375 -1.5q-1.203125 -0.5625 -2.8125 -0.5625q-1.578125 0 -2.796875 0.5625q-1.203125 0.5625 -2.09375 1.515625q-0.890625 0.953125 -1.484375 2.203125q-0.59375 1.25 -0.953125 2.625q-0.359375 1.375 -0.53125 2.78125q-0.15625 1.390625 -0.171875 2.65625l0 4.15625q0.015625 1.25 0.171875 2.671875q0.171875 1.40625 0.546875 2.78125q0.375 1.359375 0.96875 2.625q0.59375 1.265625 1.484375 2.21875q0.890625 0.953125 2.09375 1.53125q1.21875 0.5625 2.828125 0.5625q1.59375 0 2.8125 -0.5625q1.234375 -0.578125 2.109375 -1.53125q0.890625 -0.953125 1.46875 -2.203125q0.578125 -1.25 0.9375 -2.625q0.359375 -1.375 0.484375 -2.78125q0.140625 -1.40625 0.171875 -2.6875l0 -4.15625zm30.351822 10.96875q0 -1.65625 -0.765625 -2.78125q-0.75 -1.140625 -1.9375 -1.921875q-1.1875 -0.78125 -2.609375 -1.296875q-1.421875 -0.515625 -2.734375 -0.9375q-1.90625 -0.625 -3.875 -1.484375q-1.953125 -0.875 -3.578125 -2.125q-1.625 -1.265625 -2.65625 -2.984375q-1.015625 -1.71875 -1.015625 -4.046875q0 -2.328125 1.015625 -4.15625q1.03125 -1.828125 2.6875 -3.09375q1.65625 -1.265625 3.75 -1.921875q2.109375 -0.65625 4.25 -0.65625q2.34375 0 4.515625 0.78125q2.1875 0.78125 3.859375 2.203125q1.6875 1.40625 2.703125 3.40625q1.015625 2.0 1.0625 4.46875l-4.703125 0q-0.203125 -1.546875 -0.765625 -2.8125q-0.5625 -1.28125 -1.515625 -2.203125q-0.9375 -0.921875 -2.234375 -1.421875q-1.296875 -0.5 -2.921875 -0.5q-1.3125 0 -2.5625 0.375q-1.25 0.359375 -2.234375 1.109375q-0.96875 0.734375 -1.5625 1.828125q-0.578125 1.078125 -0.578125 2.515625q0.03125 1.5625 0.796875 2.640625q0.765625 1.078125 1.9375 1.828125q1.1875 0.734375 2.546875 1.234375q1.375 0.484375 2.59375 0.859375q1.328125 0.421875 2.6875 0.953125q1.359375 0.53125 2.625 1.21875q1.265625 0.6875 2.34375 1.5625q1.09375 0.859375 1.90625 1.96875q0.828125 1.09375 1.28125 2.421875q0.453125 1.3125 0.453125 2.921875q0 2.421875 -1.078125 4.234375q-1.078125 1.8125 -2.78125 3.015625q-1.703125 1.1875 -3.859375 1.796875q-2.140625 0.609375 -4.296875 0.609375q-2.40625 0 -4.703125 -0.734375q-2.296875 -0.75 -4.125 -2.140625q-1.8125 -1.40625 -2.953125 -3.421875q-1.125 -2.015625 -1.203125 -4.59375l4.671875 0q0.21875 1.6875 0.90625 2.984375q0.703125 1.296875 1.78125 2.203125q1.09375 0.90625 2.515625 1.359375q1.421875 0.453125 3.109375 0.453125q1.328125 0 2.625 -0.328125q1.3125 -0.34375 2.3125 -1.046875q1.015625 -0.703125 1.65625 -1.78125q0.65625 -1.078125 0.65625 -2.5625zm64.03177 9.109375l-23.59375 0l0 -3.296875l11.796875 -13.109375q1.578125 -1.75 2.640625 -3.109375q1.0625 -1.359375 1.703125 -2.5q0.65625 -1.15625 0.921875 -2.1875q0.28125 -1.03125 0.28125 -2.109375q0 -1.34375 -0.4375 -2.515625q-0.4375 -1.171875 -1.265625 -2.03125q-0.828125 -0.875 -2.0 -1.375q-1.171875 -0.515625 -2.65625 -0.515625q-1.8125 0 -3.140625 0.53125q-1.3125 0.515625 -2.203125 1.46875q-0.875 0.9375 -1.3125 2.3125q-0.421875 1.359375 -0.421875 3.03125l-4.59375 0q0 -2.265625 0.78125 -4.28125q0.796875 -2.015625 2.28125 -3.53125q1.5 -1.515625 3.65625 -2.40625q2.171875 -0.890625 4.953125 -0.890625q2.546875 0 4.578125 0.765625q2.046875 0.75 3.453125 2.09375q1.40625 1.328125 2.15625 3.15625q0.765625 1.828125 0.765625 3.984375q0 1.609375 -0.546875 3.1875q-0.546875 1.5625 -1.46875 3.09375q-0.921875 1.53125 -2.15625 3.03125q-1.21875 1.5 -2.578125 2.984375l-9.671875 10.484375l18.078125 0l0 3.734375zm23.148682 0l-4.578125 0l0 -30.171875l-9.421875 3.578125l0 -4.171875l13.640625 -5.25l0.359375 0l0 36.015625zm37.648712 0l-23.59375 0l0 -3.296875l11.796875 -13.109375q1.578125 -1.75 2.640625 -3.109375q1.0625 -1.359375 1.703125 -2.5q0.65625 -1.15625 0.921875 -2.1875q0.28125 -1.03125 0.28125 -2.109375q0 -1.34375 -0.4375 -2.515625q-0.4375 -1.171875 -1.265625 -2.03125q-0.828125 -0.875 -2.0 -1.375q-1.171875 -0.515625 -2.65625 -0.515625q-1.8125 0 -3.140625 0.53125q-1.3125 0.515625 -2.203125 1.46875q-0.875 0.9375 -1.3125 2.3125q-0.421875 1.359375 -0.421875 3.03125l-4.59375 0q0 -2.265625 0.78125 -4.28125q0.796875 -2.015625 2.28125 -3.53125q1.5 -1.515625 3.65625 -2.40625q2.171875 -0.890625 4.953125 -0.890625q2.546875 0 4.578125 0.765625q2.046875 0.75 3.453125 2.09375q1.40625 1.328125 2.15625 3.15625q0.765625 1.828125 0.765625 3.984375q0 1.609375 -0.546875 3.1875q-0.546875 1.5625 -1.46875 3.09375q-0.921875 1.53125 -2.15625 3.03125q-1.21875 1.5 -2.578125 2.984375l-9.671875 10.484375l18.078125 0l0 3.734375z" fill-rule="nonzero"/></g></svg>