<svg viewBox="0 0 512 512" fill="none" stroke-linecap="square" stroke-miterlimit="10" xmlns="http://www.w3.org/2000/svg"><clipPath id="a"><path d="M0 0h512v512H0V0z"/></clipPath><g clip-path="url(#a)"><path d="M0 0h512v512H0z"/><path fill="#a329a2" d="M.016 85.335C.016 38.205 38.222 0 85.35 0h341.33a85.335 85.335 0 0 1 85.335 85.335v341.33c0 47.13-38.206 85.335-85.335 85.335H85.35C38.22 512 .016 473.794.016 426.665z" fill-rule="evenodd"/><path stroke="#000" stroke-linejoin="round" stroke-linecap="butt" d="M.016 85.335h0C.016 38.205 38.222 0 85.35 0h341.33a85.335 85.335 0 0 1 85.335 85.335v341.33c0 47.13-38.206 85.335-85.335 85.335H85.35C38.22 512 .016 473.794.016 426.665z"/><path fill="#f3f3f3" d="M202.56 80.69c0-29.483 23.444-53.385 52.363-53.385 13.887 0 27.206 5.624 37.025 15.636 9.82 10.012 15.337 23.59 15.337 37.75 0 29.484-23.443 53.386-52.362 53.386-28.92 0-52.362-23.902-52.362-53.386z" fill-rule="evenodd"/><path stroke="#000" stroke-linejoin="round" stroke-linecap="butt" d="M202.56 80.69h0c0-29.483 23.444-53.385 52.363-53.385h0c13.887 0 27.206 5.624 37.025 15.636 9.82 10.012 15.337 23.59 15.337 37.75h0c0 29.484-23.443 53.386-52.362 53.386h0c-28.92 0-52.362-23.902-52.362-53.386z"/><path fill="#000" d="M257.933 94.81h-3.484V71.78l-7.203 2.734v-3.188l10.406-4h.281v27.485z"/><path fill="#f3f3f3" d="M105.504 242.492c0-24.049 19.12-43.544 42.708-43.544 11.327 0 22.19 4.588 30.2 12.754 8.01 8.166 12.509 19.241 12.509 30.79 0 24.048-19.121 43.543-42.709 43.543-23.587 0-42.708-19.495-42.708-43.543z" fill-rule="evenodd"/><path stroke="#000" stroke-linejoin="round" stroke-linecap="butt" d="M105.504 242.492h0c0-24.049 19.12-43.544 42.708-43.544h0c11.327 0 22.19 4.588 30.2 12.754 8.01 8.166 12.509 19.241 12.509 30.79h0c0 24.048-19.121 43.543-42.709 43.543h0c-23.587 0-42.708-19.495-42.708-43.543z"/><path fill="#000" d="M158.153 256.612h-18v-2.516l9-10q1.203-1.344 2.016-2.375.812-1.047 1.297-1.922.5-.875.703-1.656.203-.781.203-1.61 0-1.03-.328-1.921-.328-.89-.969-1.547-.625-.672-1.531-1.047-.89-.39-2.016-.39-1.375 0-2.39.39-1.016.39-1.688 1.125-.656.719-1 1.766-.328 1.03-.328 2.312h-3.5q0-1.734.594-3.265.61-1.547 1.75-2.688 1.14-1.156 2.797-1.828 1.656-.688 3.765-.688 1.938 0 3.5.579 1.563.578 2.625 1.593 1.078 1.016 1.657 2.422.578 1.39.578 3.031 0 1.235-.422 2.438-.406 1.187-1.125 2.36-.703 1.171-1.64 2.312-.923 1.14-1.97 2.265l-7.375 8.016h13.797v2.844z"/><path fill="#f3f3f3" d="M320.886 242.492c0-24.049 19.121-43.544 42.708-43.544 11.327 0 22.19 4.588 30.2 12.754 8.01 8.166 12.51 19.241 12.51 30.79 0 24.048-19.122 43.543-42.71 43.543-23.587 0-42.708-19.495-42.708-43.543z" fill-rule="evenodd"/><path stroke="#000" stroke-linejoin="round" stroke-linecap="butt" d="M320.886 242.492h0c0-24.049 19.121-43.544 42.708-43.544h0c11.327 0 22.19 4.588 30.2 12.754 8.01 8.166 12.51 19.241 12.51 30.79h0c0 24.048-19.122 43.543-42.71 43.543h0c-23.587 0-42.708-19.495-42.708-43.543z"/><path fill="#000" d="M373.536 256.612h-18v-2.516l9-10q1.203-1.344 2.015-2.375.813-1.047 1.297-1.922.5-.875.703-1.656.203-.781.203-1.61 0-1.03-.328-1.921-.328-.89-.969-1.547-.625-.672-1.53-1.047-.892-.39-2.017-.39-1.375 0-2.39.39-1.016.39-1.688 1.125-.656.719-1 1.766-.328 1.03-.328 2.312h-3.5q0-1.734.594-3.265.61-1.547 1.75-2.688 1.14-1.156 2.797-1.828 1.656-.688 3.766-.688 1.937 0 3.5.579 1.562.578 2.625 1.593 1.078 1.016 1.656 2.422.578 1.39.578 3.031 0 1.235-.422 2.438-.406 1.187-1.125 2.36-.703 1.171-1.64 2.312-.923 1.14-1.97 2.265l-7.374 8.016h13.797v2.844z"/><path d="M148.212 198.948c0-16.227 26.677-24.345 53.355-32.455 26.677-8.11 53.354-16.213 53.354-32.426"/><path stroke="#000" stroke-linejoin="round" stroke-linecap="butt" d="M148.212 198.948c0-16.227 26.677-24.345 53.355-32.455 26.677-8.11 53.354-16.213 53.354-32.426"/><path d="M363.594 198.948c0-16.227-27.165-24.345-54.33-32.455-27.166-8.11-54.331-16.213-54.331-32.426"/><path stroke="#000" stroke-linejoin="round" stroke-linecap="butt" d="M363.594 198.948c0-16.227-27.165-24.345-54.33-32.455-27.166-8.11-54.331-16.213-54.331-32.426"/><path fill="#f3f3f3" d="M60.57 364.516c0-15.855 12.607-28.708 28.158-28.708 7.468 0 14.63 3.024 19.91 8.408 5.28 5.384 8.247 12.686 8.247 20.3 0 15.856-12.606 28.709-28.157 28.709S60.57 380.372 60.57 364.516z" fill-rule="evenodd"/><path stroke="#000" stroke-linejoin="round" stroke-linecap="butt" d="M60.57 364.516h0c0-15.855 12.607-28.708 28.158-28.708h0c7.468 0 14.63 3.024 19.91 8.408 5.28 5.384 8.247 12.686 8.247 20.3h0c0 15.856-12.606 28.709-28.157 28.709h0c-15.551 0-28.158-12.853-28.158-28.709z"/><path fill="#f3f3f3" d="M181.497 364.516c0-15.855 12.606-28.708 28.157-28.708 7.468 0 14.63 3.024 19.91 8.408 5.281 5.384 8.248 12.686 8.248 20.3 0 15.856-12.607 28.709-28.158 28.709-15.55 0-28.157-12.853-28.157-28.709z" fill-rule="evenodd"/><path stroke="#000" stroke-linejoin="round" stroke-linecap="butt" d="M181.497 364.516h0c0-15.855 12.606-28.708 28.157-28.708h0c7.468 0 14.63 3.024 19.91 8.408 5.281 5.384 8.248 12.686 8.248 20.3h0c0 15.856-12.607 28.709-28.158 28.709h0c-15.55 0-28.157-12.853-28.157-28.709z"/><path fill="#f3f3f3" d="M274.274 364.516c0-15.855 12.607-28.708 28.158-28.708 7.467 0 14.63 3.024 19.91 8.408 5.28 5.384 8.247 12.686 8.247 20.3 0 15.856-12.607 28.709-28.157 28.709-15.551 0-28.158-12.853-28.158-28.709z" fill-rule="evenodd"/><path stroke="#000" stroke-linejoin="round" stroke-linecap="butt" d="M274.274 364.516h0c0-15.855 12.607-28.708 28.158-28.708h0c7.467 0 14.63 3.024 19.91 8.408 5.28 5.384 8.247 12.686 8.247 20.3h0c0 15.856-12.607 28.709-28.157 28.709h0c-15.551 0-28.158-12.853-28.158-28.709z"/><path fill="#f3f3f3" d="M395.204 364.516c0-15.855 12.607-28.708 28.158-28.708 7.467 0 14.63 3.024 19.91 8.408 5.28 5.384 8.247 12.686 8.247 20.3 0 15.856-12.606 28.709-28.157 28.709s-28.158-12.853-28.158-28.709z" fill-rule="evenodd"/><path stroke="#000" stroke-linejoin="round" stroke-linecap="butt" d="M395.204 364.516h0c0-15.855 12.607-28.708 28.158-28.708h0c7.467 0 14.63 3.024 19.91 8.408 5.28 5.384 8.247 12.686 8.247 20.3h0c0 15.856-12.606 28.709-28.157 28.709h0c-15.551 0-28.158-12.853-28.158-28.709z"/><path d="M88.728 335.808c0-12.433 14.874-18.645 29.748-24.866 14.874-6.22 29.748-12.45 29.748-24.898"/><path stroke="#000" stroke-linejoin="round" stroke-linecap="butt" d="M88.728 335.808c0-12.433 14.874-18.645 29.748-24.866 14.874-6.22 29.748-12.45 29.748-24.898"/><path d="M209.654 335.808c0-12.433-15.362-18.645-30.724-24.866-15.362-6.22-30.724-12.45-30.724-24.898"/><path stroke="#000" stroke-linejoin="round" stroke-linecap="butt" d="M209.654 335.808c0-12.433-15.362-18.645-30.724-24.866-15.362-6.22-30.724-12.45-30.724-24.898"/><path d="M302.432 335.808c0-12.433 15.29-18.645 30.582-24.866 15.292-6.22 30.583-12.45 30.583-24.898"/><path stroke="#000" stroke-linejoin="round" stroke-linecap="butt" d="M302.432 335.808c0-12.433 15.29-18.645 30.582-24.866 15.292-6.22 30.583-12.45 30.583-24.898"/><path d="M423.362 335.808c0-12.433-14.945-18.645-29.89-24.866-14.945-6.22-29.89-12.45-29.89-24.898"/><path stroke="#000" stroke-linejoin="round" stroke-linecap="butt" d="M423.362 335.808c0-12.433-14.945-18.645-29.89-24.866-14.945-6.22-29.89-12.45-29.89-24.898"/><path d="M4.93 402.93h502.172v81.764H4.93z"/><path fill="#fff" d="M177.245 451.124q-.312 2.5-1.281 4.594-.969 2.078-2.516 3.578-1.546 1.5-3.656 2.328-2.11.828-4.719.828-2.218 0-4.046-.625-1.813-.64-3.235-1.75-1.422-1.125-2.453-2.625-1.016-1.515-1.703-3.296-.672-1.782-1.016-3.735-.328-1.953-.36-3.953v-5.016q.032-2.015.36-3.968.344-1.953 1.016-3.735.687-1.78 1.703-3.297 1.031-1.515 2.453-2.625 1.422-1.125 3.219-1.75 1.812-.64 4.062-.64 2.704 0 4.829.844 2.125.828 3.656 2.343 1.531 1.516 2.453 3.657.937 2.125 1.234 4.687h-4.578q-.219-1.625-.765-3.031-.547-1.422-1.47-2.485-.905-1.062-2.234-1.656-1.312-.61-3.125-.61-1.625 0-2.875.532-1.25.531-2.156 1.453-.906.906-1.515 2.125-.594 1.203-.97 2.563-.374 1.36-.53 2.781-.157 1.422-.157 2.766v5.062q0 1.344.157 2.766.156 1.422.53 2.797.376 1.359.97 2.578.593 1.203 1.5 2.14.921.922 2.156 1.453 1.234.532 2.89.532 1.813 0 3.125-.563 1.329-.578 2.235-1.594.922-1.03 1.469-2.421.546-1.407.765-3.032h4.578zm30.508-5.093q-.03 1.921-.343 3.89-.313 1.969-.954 3.797-.64 1.828-1.64 3.422-1 1.578-2.39 2.766-1.376 1.187-3.173 1.875-1.797.671-4.015.671-2.235 0-4.032-.671-1.78-.688-3.171-1.875-1.391-1.188-2.407-2.782-1.015-1.609-1.672-3.437-.64-1.828-.968-3.781-.328-1.954-.344-3.875v-4.11q.016-1.937.328-3.89.313-1.97.969-3.797.656-1.844 1.656-3.438 1-1.594 2.375-2.781 1.39-1.203 3.188-1.89 1.796-.688 4.015-.688 2.235 0 4.031.687 1.813.688 3.188 1.875 1.39 1.188 2.39 2.782 1 1.593 1.657 3.421.656 1.829.969 3.813.312 1.969.343 3.906v4.11zm-4.53-4.157q-.032-1.297-.188-2.687-.141-1.406-.5-2.766-.36-1.375-.954-2.625-.593-1.25-1.484-2.203-.89-.953-2.11-1.5-1.202-.562-2.812-.562-1.578 0-2.797.562-1.203.563-2.093 1.516-.891.953-1.485 2.203-.594 1.25-.953 2.625-.36 1.375-.531 2.781-.156 1.39-.172 2.656v4.157q.016 1.25.172 2.671.172 1.407.547 2.782.375 1.36.968 2.625.594 1.265 1.485 2.218.89.954 2.094 1.532 1.218.562 2.828.562 1.593 0 2.812-.562 1.235-.578 2.11-1.532.89-.953 1.468-2.203t.938-2.625q.36-1.375.484-2.78.14-1.407.172-2.688v-4.157zm30.35 10.97q0-1.657-.765-2.782-.75-1.14-1.937-1.922-1.188-.781-2.61-1.297-1.421-.516-2.734-.937-1.906-.625-3.875-1.485-1.953-.875-3.578-2.125-1.625-1.265-2.656-2.984-1.016-1.719-1.016-4.047 0-2.328 1.016-4.156 1.03-1.828 2.687-3.094 1.656-1.266 3.75-1.922 2.11-.656 4.25-.656 2.344 0 4.516.781 2.187.781 3.86 2.203 1.687 1.406 2.702 3.406 1.016 2 1.063 4.47h-4.703q-.203-1.548-.766-2.813-.562-1.282-1.516-2.203-.937-.922-2.234-1.422-1.297-.5-2.922-.5-1.312 0-2.562.375-1.25.36-2.235 1.11-.968.733-1.562 1.827-.578 1.078-.578 2.516.03 1.562.797 2.64.765 1.079 1.937 1.829 1.188.734 2.547 1.234 1.375.484 2.594.86 1.328.421 2.687.952 1.36.532 2.625 1.22 1.266.687 2.344 1.562 1.094.86 1.906 1.968.828 1.094 1.281 2.422.454 1.313.454 2.922 0 2.422-1.079 4.235-1.078 1.812-2.78 3.015-1.704 1.188-3.86 1.797-2.14.61-4.297.61-2.406 0-4.703-.735-2.297-.75-4.125-2.14-1.813-1.407-2.953-3.422-1.125-2.016-1.203-4.594h4.671q.22 1.687.907 2.984.703 1.297 1.78 2.203 1.095.907 2.517 1.36 1.421.453 3.109.453 1.328 0 2.625-.328 1.312-.344 2.312-1.047 1.016-.703 1.657-1.781.656-1.079.656-2.563zm64.033 9.108h-23.594v-3.296l11.797-13.11q1.578-1.75 2.64-3.11 1.063-1.359 1.704-2.5.656-1.155.921-2.187.282-1.03.282-2.109 0-1.344-.438-2.516-.437-1.172-1.265-2.03-.829-.876-2-1.376-1.172-.516-2.657-.516-1.812 0-3.14.532-1.313.515-2.203 1.468-.875.938-1.313 2.313-.422 1.36-.422 3.031h-4.594q0-2.265.782-4.281.797-2.016 2.281-3.531 1.5-1.516 3.656-2.407 2.172-.89 4.953-.89 2.547 0 4.578.765 2.047.75 3.454 2.094 1.406 1.328 2.156 3.156.765 1.829.765 3.985 0 1.61-.546 3.187-.547 1.563-1.47 3.094-.921 1.531-2.155 3.031-1.22 1.5-2.579 2.985l-9.671 10.484h18.078v3.734zm23.148 0h-4.578v-30.171l-9.422 3.578v-4.172l13.641-5.25h.36v36.015zm37.65 0h-23.595v-3.296l11.797-13.11q1.578-1.75 2.64-3.11 1.063-1.359 1.704-2.5.656-1.155.922-2.187.281-1.03.281-2.109 0-1.344-.437-2.516-.438-1.172-1.266-2.03-.828-.876-2-1.376-1.172-.516-2.656-.516-1.813 0-3.14.532-1.313.515-2.204 1.468-.875.938-1.313 2.313-.421 1.36-.421 3.031h-4.594q0-2.265.781-4.281.797-2.016 2.281-3.531 1.5-1.516 3.657-2.407 2.171-.89 4.953-.89 2.547 0 4.578.765 2.047.75 3.453 2.094 1.406 1.328 2.156 3.156.766 1.829.766 3.985 0 1.61-.547 3.187-.547 1.563-1.469 3.094t-2.156 3.031q-1.219 1.5-2.578 2.985l-9.672 10.484h18.078v3.734z"/></g></svg>